<svg width="251" height="61" viewBox="0 0 251 61" fill="none" xmlns="http://www.w3.org/2000/svg">
<path d="M20.412 4.728V9.66H13.716V30H7.56V9.66H0.864V4.728H20.412ZM26.5975 7.824C25.5175 7.824 24.6295 7.512 23.9335 6.888C23.2615 6.24 22.9255 5.448 22.9255 4.512C22.9255 3.552 23.2615 2.76 23.9335 2.136C24.6295 1.488 25.5175 1.164 26.5975 1.164C27.6535 1.164 28.5175 1.488 29.1895 2.136C29.8855 2.76 30.2335 3.552 30.2335 4.512C30.2335 5.448 29.8855 6.24 29.1895 6.888C28.5175 7.512 27.6535 7.824 26.5975 7.824ZM29.6575 9.912V30H23.5015V9.912H29.6575ZM45.3147 24.78V30H42.1827C39.9507 30 38.2107 29.46 36.9627 28.38C35.7147 27.276 35.0907 25.488 35.0907 23.016V15.024H32.6427V9.912H35.0907V5.016H41.2467V9.912H45.2787V15.024H41.2467V23.088C41.2467 23.688 41.3907 24.12 41.6787 24.384C41.9667 24.648 42.4467 24.78 43.1187 24.78H45.3147ZM47.5197 19.92C47.5197 17.856 47.9037 16.044 48.6717 14.484C49.4637 12.924 50.5317 11.724 51.8757 10.884C53.2197 10.044 54.7197 9.624 56.3757 9.624C57.7917 9.624 59.0277 9.912 60.0837 10.488C61.1637 11.064 61.9917 11.82 62.5677 12.756V9.912H68.7237V30H62.5677V27.156C61.9677 28.092 61.1277 28.848 60.0477 29.424C58.9917 30 57.7557 30.288 56.3397 30.288C54.7077 30.288 53.2197 29.868 51.8757 29.028C50.5317 28.164 49.4637 26.952 48.6717 25.392C47.9037 23.808 47.5197 21.984 47.5197 19.92ZM62.5677 19.956C62.5677 18.42 62.1357 17.208 61.2717 16.32C60.4317 15.432 59.3997 14.988 58.1757 14.988C56.9517 14.988 55.9077 15.432 55.0437 16.32C54.2037 17.184 53.7837 18.384 53.7837 19.92C53.7837 21.456 54.2037 22.68 55.0437 23.592C55.9077 24.48 56.9517 24.924 58.1757 24.924C59.3997 24.924 60.4317 24.48 61.2717 23.592C62.1357 22.704 62.5677 21.492 62.5677 19.956ZM85.4173 9.696C87.7693 9.696 89.6413 10.464 91.0333 12C92.4493 13.512 93.1573 15.6 93.1573 18.264V30H87.0373V19.092C87.0373 17.748 86.6893 16.704 85.9933 15.96C85.2973 15.216 84.3613 14.844 83.1853 14.844C82.0093 14.844 81.0733 15.216 80.3773 15.96C79.6813 16.704 79.3333 17.748 79.3333 19.092V30H73.1773V9.912H79.3333V12.576C79.9573 11.688 80.7973 10.992 81.8533 10.488C82.9093 9.96 84.0973 9.696 85.4173 9.696ZM105.607 30.288C103.855 30.288 102.295 29.988 100.927 29.388C99.5591 28.788 98.4791 27.972 97.6871 26.94C96.8951 25.884 96.4511 24.708 96.3551 23.412H102.439C102.511 24.108 102.835 24.672 103.411 25.104C103.987 25.536 104.695 25.752 105.535 25.752C106.303 25.752 106.891 25.608 107.299 25.32C107.731 25.008 107.947 24.612 107.947 24.132C107.947 23.556 107.647 23.136 107.047 22.872C106.447 22.584 105.475 22.272 104.131 21.936C102.691 21.6 101.491 21.252 100.531 20.892C99.5711 20.508 98.7431 19.92 98.0471 19.128C97.3511 18.312 97.0031 17.22 97.0031 15.852C97.0031 14.7 97.3151 13.656 97.9391 12.72C98.5871 11.76 99.5231 11.004 100.747 10.452C101.995 9.9 103.471 9.624 105.175 9.624C107.695 9.624 109.675 10.248 111.115 11.496C112.579 12.744 113.419 14.4 113.635 16.464H107.947C107.851 15.768 107.539 15.216 107.011 14.808C106.507 14.4 105.835 14.196 104.995 14.196C104.275 14.196 103.723 14.34 103.339 14.628C102.955 14.892 102.763 15.264 102.763 15.744C102.763 16.32 103.063 16.752 103.663 17.04C104.287 17.328 105.247 17.616 106.543 17.904C108.031 18.288 109.243 18.672 110.179 19.056C111.115 19.416 111.931 20.016 112.627 20.856C113.347 21.672 113.719 22.776 113.743 24.168C113.743 25.344 113.407 26.4 112.735 27.336C112.087 28.248 111.139 28.968 109.891 29.496C108.667 30.024 107.239 30.288 105.607 30.288ZM124.094 17.328C124.094 14.832 124.634 12.612 125.714 10.668C126.794 8.7 128.294 7.176 130.214 6.096C132.158 4.992 134.354 4.44 136.802 4.44C139.802 4.44 142.37 5.232 144.506 6.816C146.642 8.4 148.07 10.56 148.79 13.296H142.022C141.518 12.24 140.798 11.436 139.862 10.884C138.95 10.332 137.906 10.056 136.73 10.056C134.834 10.056 133.298 10.716 132.122 12.036C130.946 13.356 130.358 15.12 130.358 17.328C130.358 19.536 130.946 21.3 132.122 22.62C133.298 23.94 134.834 24.6 136.73 24.6C137.906 24.6 138.95 24.324 139.862 23.772C140.798 23.22 141.518 22.416 142.022 21.36H148.79C148.07 24.096 146.642 26.256 144.506 27.84C142.37 29.4 139.802 30.18 136.802 30.18C134.354 30.18 132.158 29.64 130.214 28.56C128.294 27.456 126.794 25.932 125.714 23.988C124.634 22.044 124.094 19.824 124.094 17.328ZM158.716 13.26C159.436 12.156 160.336 11.292 161.416 10.668C162.496 10.02 163.696 9.696 165.016 9.696V16.212H163.324C161.788 16.212 160.636 16.548 159.868 17.22C159.1 17.868 158.716 19.02 158.716 20.676V30H152.56V9.912H158.716V13.26ZM188.479 9.912L175.879 39.54H169.255L173.863 29.316L165.691 9.912H172.567L177.211 22.476L181.819 9.912H188.479ZM196.861 12.756C197.461 11.82 198.289 11.064 199.345 10.488C200.401 9.912 201.637 9.624 203.053 9.624C204.709 9.624 206.209 10.044 207.553 10.884C208.897 11.724 209.953 12.924 210.721 14.484C211.513 16.044 211.909 17.856 211.909 19.92C211.909 21.984 211.513 23.808 210.721 25.392C209.953 26.952 208.897 28.164 207.553 29.028C206.209 29.868 204.709 30.288 203.053 30.288C201.661 30.288 200.425 30 199.345 29.424C198.289 28.848 197.461 28.104 196.861 27.192V39.576H190.705V9.912H196.861V12.756ZM205.645 19.92C205.645 18.384 205.213 17.184 204.349 16.32C203.509 15.432 202.465 14.988 201.217 14.988C199.993 14.988 198.949 15.432 198.085 16.32C197.245 17.208 196.825 18.42 196.825 19.956C196.825 21.492 197.245 22.704 198.085 23.592C198.949 24.48 199.993 24.924 201.217 24.924C202.441 24.924 203.485 24.48 204.349 23.592C205.213 22.68 205.645 21.456 205.645 19.92ZM226.334 24.78V30H223.202C220.97 30 219.23 29.46 217.982 28.38C216.734 27.276 216.11 25.488 216.11 23.016V15.024H213.662V9.912H216.11V5.016H222.266V9.912H226.298V15.024H222.266V23.088C222.266 23.688 222.41 24.12 222.698 24.384C222.986 24.648 223.466 24.78 224.138 24.78H226.334ZM238.907 30.288C236.939 30.288 235.163 29.868 233.579 29.028C232.019 28.188 230.783 26.988 229.871 25.428C228.983 23.868 228.539 22.044 228.539 19.956C228.539 17.892 228.995 16.08 229.907 14.52C230.819 12.936 232.067 11.724 233.651 10.884C235.235 10.044 237.011 9.624 238.979 9.624C240.947 9.624 242.723 10.044 244.307 10.884C245.891 11.724 247.139 12.936 248.051 14.52C248.963 16.08 249.419 17.892 249.419 19.956C249.419 22.02 248.951 23.844 248.015 25.428C247.103 26.988 245.843 28.188 244.235 29.028C242.651 29.868 240.875 30.288 238.907 30.288ZM238.907 24.96C240.083 24.96 241.079 24.528 241.895 23.664C242.735 22.8 243.155 21.564 243.155 19.956C243.155 18.348 242.747 17.112 241.931 16.248C241.139 15.384 240.155 14.952 238.979 14.952C237.779 14.952 236.783 15.384 235.991 16.248C235.199 17.088 234.803 18.324 234.803 19.956C234.803 21.564 235.187 22.8 235.955 23.664C236.747 24.528 237.731 24.96 238.907 24.96Z" fill="#5ED5A8"/>
</svg>
